<?xml version="1.0" encoding="UTF-8" standalone="no"?>
<svg width="914px" height="138px" viewBox="0 0 914 138" version="1.1" xmlns="http://www.w3.org/2000/svg" xmlns:xlink="http://www.w3.org/1999/xlink" xmlns:sketch="http://www.bohemiancoding.com/sketch/ns">
    <!-- Generator: Sketch 3.2.2 (9983) - http://www.bohemiancoding.com/sketch -->
    <title>Slice 1</title>
    <desc>Created with Sketch.</desc>
    <defs></defs>
    <g id="Page-1" stroke="none" stroke-width="1" fill="none" fill-rule="evenodd" sketch:type="MSPage">
        <path d="M545.232033,10.4727273 C557.38809,10.4727273 566.258727,12.1350649 577.429158,16.9558442 L577.429158,5.81818182 C570.694045,2.65974026 560.50924,-2.84217094e-14 545.396304,-2.84217094e-14 C510.899384,-2.84217094e-14 504,20.2805195 504,34.7428571 C504,56.0207792 515.170431,62.8363636 544.246407,66.4935065 C564.780287,69.1532468 572.008214,72.6441558 572.008214,90.4311688 C572.008214,105.392208 564.287474,117.527273 538.661191,117.527273 C521.577002,117.527273 511.88501,113.205195 504,110.545455 L504,121.350649 C511.720739,124.841558 527.162218,128 538.49692,128 C575.129363,128 584,107.387013 584,90.4311688 C584,65.9948052 569.051335,60.0103896 544.903491,56.8519481 C525.519507,54.3584416 515.334702,52.6961039 515.334702,34.9090909 C515.334702,21.7766234 520.919918,10.4727273 545.232033,10.4727273 L545.232033,10.4727273 Z M640.676923,117.970149 C638.516923,118.137313 636.356923,118.304478 634.196923,118.304478 C623.729231,118.304478 618.246154,114.125373 618.246154,103.928358 L618.246154,51.9402985 L644,51.9402985 L644,42.7462687 L618.246154,42.7462687 L618.246154,16 L606.615385,19.3432836 L606.615385,41.9104478 L590,46.758209 L590,51.9402985 L606.615385,51.9402985 L606.615385,105.265672 C606.615385,121.647761 619.409231,128 633.2,128 C635.36,128 638.683077,127.832836 640.676923,127.331343 L640.676923,117.970149 Z M702.210526,69.6192308 L702.210526,74.25 L679.978947,75.5730769 C657.915789,76.8961538 650,87.3153846 650,101.373077 C650,115.265385 657.410526,128 679.473684,128 C687.894737,128 697.326316,125.188462 704.905263,119.730769 L707.431579,126.346154 L714,126.346154 L714,69.7846154 C714,53.2461538 707.431579,42 682.168421,42 C674.084211,42 664.315789,43.3230769 656.905263,46.4653846 L656.905263,56.3884615 C663.473684,54.2384615 670.884211,52.2538462 682.168421,52.2538462 C697.831579,52.2538462 702.210526,57.5461538 702.210526,69.6192308 L702.210526,69.6192308 Z M702,82 L702,111.271028 C694.803347,115.476636 688.778243,118 679.740586,118 C663.841004,118 662,108.915888 662,101.345794 C662,91.588785 667.188285,85.364486 679.07113,84.1869159 L702,82 Z M768.676923,117.970149 C766.516923,118.137313 764.356923,118.304478 762.196923,118.304478 C751.729231,118.304478 746.246154,114.125373 746.246154,103.928358 L746.246154,51.9402985 L772,51.9402985 L772,42.7462687 L746.246154,42.7462687 L746.246154,16 L734.615385,19.3432836 L734.615385,41.9104478 L718,46.758209 L718,51.9402985 L734.615385,51.9402985 L734.615385,105.265672 C734.615385,121.647761 747.409231,128 761.2,128 C763.36,128 766.683077,127.832836 768.676923,127.331343 L768.676923,117.970149 Z M791.573333,44 L780,44 L780,103.294118 C780,119.105882 788.432,128 808.106667,128 C816.869333,128 825.301333,125.2 833.072,119.435294 L835.552,126.352941 L842,126.352941 L842,44 L830.426667,44 L830.426667,112.517647 C824.309333,115.976471 818.853333,117.788235 808.106667,117.788235 C797.856,117.788235 791.573333,114.494118 791.573333,103.788235 L791.573333,44 Z M865.123596,66.4769231 C865.123596,58.3730769 868.662921,52.2538462 885.348315,52.2538462 C896.640449,52.2538462 903.213483,53.9076923 909.786517,56.0576923 L909.786517,46.1346154 C902.370787,42.9923077 893.438202,42 885.516854,42 C861.752809,42 854,54.7346154 854,66.4769231 C854,77.8884615 859.05618,86.3230769 883.494382,88.4730769 C900.179775,89.7961538 902.539326,95.0884615 902.539326,102.696154 C902.539326,110.469231 897.820225,117.746154 880.292135,117.746154 C868.325843,117.746154 860.235955,115.761538 855.011236,113.942308 L855.011236,123.865385 C860.404494,126.015385 872.033708,128 880.123596,128 C905.741573,128 914,115.265385 914,102.530769 C914,88.9692308 908.269663,81.0307692 884.337079,78.8807692 C868.157303,77.5576923 865.123596,73.7538462 865.123596,66.4769231 L865.123596,66.4769231 Z" id="Status" fill="#FFFFFF" sketch:type="MSShapeGroup"></path>
        <path d="M92,54.758226 L51.8333333,54.758226 C50.7222167,54.8680467 50.1111117,55.4720517 50,56.570259 L50,76.008431 C50.1111117,77.1066383 50.7222167,77.7106432 51.8333333,77.820464 L67.5,77.820464 L67.5,102.035814 C67.6111117,102.035814 66.6388992,102.227997 64.5833333,102.61237 C62.5277675,102.996742 59.111135,103.188926 54.3333333,103.188926 C48.11108,103.738029 42.0833625,101.596557 36.25,96.7644452 C30.4166375,91.9323331 27.27778,81.0602439 26.8333333,64.1478515 C27.1666683,47.235459 30.5833008,36.3084603 37.0833333,31.3665275 C43.5833658,26.4245946 50.9444033,24.228213 59.1666667,24.7773166 C65.8333667,24.8871373 70.9166492,25.3264137 74.4166667,26.0951588 C77.9166842,26.8639039 80.5555467,27.5777279 82.3333333,28.2366523 C82.8888917,28.346473 83.3888867,28.2091992 83.8333333,27.8248266 C84.27778,27.4404541 84.5,26.973723 84.5,26.4246193 L89,7.6453684 C89,7.09626475 88.722225,6.54716933 88.1666667,5.99806568 C87.6111083,5.44896203 84.7222483,4.37822598 79.5,2.78582539 C74.2777517,1.19342481 65.8889467,0.287417376 54.3333333,0.0677759162 C40.3332633,-0.591148464 27.9167208,3.55452191 17.0833333,12.5049114 C6.24994583,21.4553009 0.555558333,39.163628 0,65.6304239 C0.777781667,91.9873991 7.13882917,109.146631 19.0833333,117.108634 C31.0278375,125.070637 43.99993,128.667212 58,127.898466 C69.1111667,127.459184 77.7499692,125.894262 83.9166667,123.203654 C90.0833642,120.513046 93.2222217,119.003033 93.3333333,118.673571 C93.77778,118.234288 94,117.795012 94,117.355729 L94,56.7349892 C93.8888883,55.6367819 93.2777833,55.032777 92.1666667,54.9229563 L92,54.758226 Z M294.166667,4.16643929 L271.5,4.16643929 C270.388883,4.27739937 269.777778,4.88767067 269.666667,5.99727149 L269.666667,49.6043656 L234.333333,49.6043656 L234.333333,5.99727149 C234.222222,4.88767067 233.611117,4.27739937 232.5,4.16643929 L209.833333,4.16643929 C208.722217,4.27739937 208.111112,4.88767067 208,5.99727149 L208,124.169168 C208.111112,125.278769 208.722217,125.88904 209.833333,126 L232.5,126 C233.611117,125.88904 234.222222,125.278769 234.333333,124.169168 L234.333333,73.5716235 L269.666667,73.5716235 L269.666667,124.169168 C269.777778,125.278769 270.388883,125.88904 271.5,126 L294.166667,126 C295.277783,125.88904 295.888888,125.278769 296,124.169168 L296,5.8308322 C295.888888,4.72123138 295.277783,4.11096008 294.166667,4 L294.166667,4.16643929 Z M118,8 C114.030631,8.11428629 110.704994,9.59998571 108.022989,12.4571429 C105.340983,15.3143 104,18.8856929 104,23.1714286 C104,27.4571643 105.314163,30.999986 107.942529,33.8 C110.570894,36.600014 113.923351,38 118,38 C122.076649,38 125.429106,36.5714429 128.057471,33.7142857 C130.685837,30.8571286 132,27.2857357 132,23 C132,18.7142643 130.685837,15.1714426 128.057471,12.3714286 C125.429106,9.57141457 122.076649,8.11428629 118,8 L118,8 Z M129.827928,45.8443114 C129.718949,44.7265413 129.119573,44.111777 128.029781,44 L105.961615,44 C105.416719,44 104.953565,44.2235507 104.572138,44.6706587 C104.190711,45.1177667 104,45.6207557 104,46.1796407 L104,124.982036 C104,126.099806 104.326933,126.882233 104.980807,127.329341 C105.634682,127.776449 106.397525,128 107.269358,128 L127.212442,128 C129.174067,127.888223 130.100375,126.882245 129.991396,124.982036 L129.991396,46.011976 L129.827928,45.8443114 Z M380.186551,44.1672818 L357.930586,44.1672818 C356.83152,44.2788035 356.227043,44.892164 356.117137,46.0073815 L356.117137,104.221446 C356.00723,104.44449 354.715848,105.14149 352.24295,106.312469 C349.770053,107.483447 346.527858,108.124687 342.516269,108.236209 C338.50468,108.347731 335.757057,107.45557 334.273319,105.559701 C332.78958,103.663831 332.102675,100.708549 332.212581,96.6937654 L332.212581,45.8400997 C332.102675,44.7248822 331.498198,44.1115218 330.399132,44 L307.813449,44 C306.714384,44.1115218 306.109907,44.7248822 306,45.8400997 L306,100.541247 C306.219813,112.139509 309.132293,120.001675 314.737527,124.12798 C320.342761,128.254285 327.70639,130.205886 336.828633,129.982843 C344.302279,129.648277 350.539382,128.282156 355.54013,125.884439 C360.540878,123.486721 363.15112,122.1206 363.370933,121.786035 L363.700651,123.960698 C363.810557,125.298959 363.975415,126.219 364.195228,126.720848 C364.415041,127.222695 364.964565,127.529376 365.843818,127.640897 L380.186551,127.640897 C381.285616,127.529376 381.890093,126.916015 382,125.800798 L382,46.0073815 C381.890093,44.892164 381.285616,44.2788035 380.186551,44.1672818 L380.186551,44.1672818 Z M440.832636,40.1807099 C434.414194,40.4019997 429.328471,41.3424675 425.575314,43.0021414 C421.822157,44.6618153 419.891214,45.602283 419.782427,45.8235729 L419.782427,5.82563215 C419.67364,4.71918289 419.075319,4.11064493 417.987448,4 L395.794979,4 C394.707108,4.11064493 394.108787,4.71918289 394,5.82563215 L394,123.827856 C394.108787,124.934305 394.707108,125.542843 395.794979,125.653488 L411.297071,125.653488 C411.949794,125.653488 412.493722,125.321558 412.92887,124.657688 C413.146445,124.104464 413.364016,123.108674 413.58159,121.67029 L413.90795,119.180792 C413.90795,119.512727 416.138053,120.97875 420.598326,123.578906 C425.0586,126.179062 431.585731,127.645085 440.179916,127.97702 C450.405909,128.308954 458.238467,125.044978 463.677824,118.184993 C469.117182,111.325007 471.891213,98.988283 472,81.1744499 C471.456064,63.5819067 467.838946,52.2133111 461.148536,47.0683221 C454.458126,41.923333 447.740619,39.6274852 440.995816,40.1807099 L440.832636,40.1807099 Z M431.232452,108 C427.160908,107.774674 423.93765,107.098708 421.562583,105.972079 C419.187516,104.845451 418,104.225815 418,104.113152 L418,66.0896423 C418.113098,65.9769795 419.27234,65.4136739 421.47776,64.3997086 C423.683179,63.3857432 426.482324,62.6534459 429.875277,62.2027946 C434.173018,61.5268178 437.90521,62.5407679 441.071967,65.2446754 C444.238723,67.948583 445.878626,74.0322838 445.991724,83.4959602 C446.104823,93.5229508 445.058678,100.198122 442.853258,103.521675 C440.647839,106.845229 436.774275,108.281658 431.232452,107.831007 L431.232452,108 Z M196.352273,106.50779 C195.803028,106.50779 194.979172,106.562704 193.880682,106.672535 C192.782191,106.782366 191.57387,106.83728 190.255682,106.83728 C186.191268,106.72745 183.335236,105.876274 181.6875,104.283727 C180.039764,102.691181 179.215909,100.631884 179.215909,98.1057762 L179.215909,65.1567039 L196.022727,65.1567039 C197.121218,65.0468731 197.725378,64.4428128 197.835227,63.3445049 L197.835227,45.3872605 C197.725378,44.2889526 197.121218,43.6848923 196.022727,43.5750615 L179.215909,43.5750615 L179.215909,21.3344377 C179.215909,20.4557914 178.721596,20.0164748 177.732955,20.0164748 L154.829545,20.0164748 C153.950753,19.906644 153.511364,20.3459606 153.511364,21.3344377 L153.511364,44.234043 L141.318182,47.1994595 C140.43939,47.419121 140,48.0231813 140,49.0116584 L140,63.3445049 C140.109849,64.4428128 140.71401,65.0468731 141.8125,65.1567039 L153.511364,65.1567039 L153.511364,99.7532298 C154.060609,112.164109 157.603187,120.071807 164.139205,123.476562 C170.675222,126.881316 177.18368,128.36401 183.664773,127.924687 C186.630697,127.814856 189.431805,127.485368 192.068182,126.936214 C194.704559,126.387061 196.352269,125.975201 197.011364,125.700624 C197.670458,125.426047 198,124.904359 198,124.135543 L198,108.319989 C197.890151,107.221681 197.28599,106.61762 196.1875,106.50779 L196.352273,106.50779 Z" id="" fill="#FFFFFF" sketch:type="MSShapeGroup"></path>
    </g>
</svg>